/* XPM */
static char *background[] = {
/* width height num_colors chars_per_pixel */
"    54    54       3            1",
/* colors */
". c #202020",
"c c #303030",
"q c #888c88",
/* pixels */
"....q................................................q",
".cccq.cccccccccccccccccccccccccccccccccccccccccccccccq",
".cccq.cccccccccccccccccccccccccccccccccccccccccccccccq",
".cccq.cccccccccccccccccccccccccccccccccccccccccccccccq",
".cccq.cccccccccccccccccccccccccccccccccccccccccccccccq",
".cccq.cccccccccccccccccccccccccccccccccccccccccccccccq",
".cccq.cccccccccccccccccccccccccccccccccccccccccccccccq",
".cccq.cccccccccccccccccccccccccccccccccccccccccccccccq",
".cccq.cccccccccccccccccccccccccccccccccccccccccccccccq",
".cccq.cccccccccccccccccccccccccccccccccccccccccccccccq",
".cccq.cccccccccccccccccccccccccccccccccccccccccccccccq",
".cccq.cccccccccccccccccccccccccccccccccccccccccccccccq",
".cccq.cccccccccccccccccccccccccccccccccccccccccccccccq",
".cccq.cccccccccccccccccccccccccccccccccccccccccccccccq",
".cccq.cccccccccccccccccccccccccccccccccccccccccccccccq",
".cccq.cccccccccccccccccccccccccccccccccccccccccccccccq",
".cccq.cccccccccccccccccccccccccccccccccccccccccccccccq",
".cccq.cccccccccccccccccccccccccccccccccccccccccccccccq",
".cccq.cccccccccccccccccccccccccccccccccccccccccccccccq",
".cccq.cccccccccccccccccccccccccccccccccccccccccccccccq",
".cccq.cccccccccccccccccccccccccccccccccccccccccccccccq",
".cccq.cccccccccccccccccccccccccccccccccccccccccccccccq",
".cccq.cccccccccccccccccccccccccccccccccccccccccccccccq",
".cccq.cccccccccccccccccccccccccccccccccccccccccccccccq",
".cccq.cccccccccccccccccccccccccccccccccccccccccccccccq",
".cccq.cccccccccccccccccccccccccccccccccccccccccccccccq",
".cccq.cccccccccccccccccccccccccccccccccccccccccccccccq",
".cccq.cccccccccccccccccccccccccccccccccccccccccccccccq",
".cccq.cccccccccccccccccccccccccccccccccccccccccccccccq",
".cccq.cccccccccccccccccccccccccccccccccccccccccccccccq",
".cccq.cccccccccccccccccccccccccccccccccccccccccccccccq",
".cccq.cccccccccccccccccccccccccccccccccccccccccccccccq",
".cccq.cccccccccccccccccccccccccccccccccccccccccccccccq",
".cccq.cccccccccccccccccccccccccccccccccccccccccccccccq",
".cccq.cccccccccccccccccccccccccccccccccccccccccccccccq",
".cccq.cccccccccccccccccccccccccccccccccccccccccccccccq",
".cccq.cccccccccccccccccccccccccccccccccccccccccccccccq",
".cccq.cccccccccccccccccccccccccccccccccccccccccccccccq",
".cccq.cccccccccccccccccccccccccccccccccccccccccccccccq",
".cccq.cccccccccccccccccccccccccccccccccccccccccccccccq",
".cccq.cccccccccccccccccccccccccccccccccccccccccccccccq",
".cccq.cccccccccccccccccccccccccccccccccccccccccccccccq",
".cccq.cccccccccccccccccccccccccccccccccccccccccccccccq",
".cccq.cccccccccccccccccccccccccccccccccccccccccccccccq",
".cccq.cccccccccccccccccccccccccccccccccccccccccccccccq",
".cccq.cccccccccccccccccccccccccccccccccccccccccccccccq",
".cccq.cccccccccccccccccccccccccccccccccccccccccccccccq",
".cccq.cccccccccccccccccccccccccccccccccccccccccccccccq",
".cccq.cccccccccccccccccccccccccccccccccccccccccccccccq",
".cccq.cccccccccccccccccccccccccccccccccccccccccccccccq",
".cccq.cccccccccccccccccccccccccccccccccccccccccccccccq",
".cccq.cccccccccccccccccccccccccccccccccccccccccccccccq",
".cccq.cccccccccccccccccccccccccccccccccccccccccccccccq",
"qqqqqqqqqqqqqqqqqqqqqqqqqqqqqqqqqqqqqqqqqqqqqqqqqqqqqq",
};

